<svg width="760" height="760" viewBox="0 0 760 760" fill="none" xmlns="http://www.w3.org/2000/svg">
  <rect width="760" height="760" rx="32" fill="#FFF8F0"/>
  <ellipse cx="380" cy="726" rx="146" ry="28" fill="#EDD7C1"/>
  <path d="M188 252C188 142.648 276.648 54 386 54C495.352 54 584 142.648 584 252V426H188V252Z" fill="#D4A96E"/>
  <path d="M170 250C170 143.962 255.962 58 362 58H404C510.038 58 596 143.962 596 250V346C596 386.869 562.869 420 522 420H244C203.131 420 170 386.869 170 346V250Z" fill="#EED3A6"/>
  <path d="M208 232C208 151.366 273.366 86 354 86H410C490.634 86 556 151.366 556 232V314C556 344.928 530.928 370 500 370H264C233.072 370 208 344.928 208 314V232Z" fill="#F2DFBF"/>
  <path d="M238 218C238 181.549 267.549 152 304 152H456C492.451 152 522 181.549 522 218V256H238V218Z" fill="#FF6A00"/>
  <path d="M236 246H524V292C524 320.719 500.719 344 472 344H288C259.281 344 236 320.719 236 292V246Z" fill="#F47B20"/>
  <path d="M256 264C279.333 258 301.333 255 322 255C352 255 384 260 418 270C447.333 257.333 475.333 251 502 251" stroke="#FFDCC1" stroke-width="7" stroke-linecap="round"/>
  <text x="380" y="305" text-anchor="middle" fill="white" font-family="Arial, sans-serif" font-size="34" font-weight="700">Wij zijn Nederland</text>
  <path d="M250 404C250 305.693 329.693 226 428 226H440C538.307 226 618 305.693 618 404V444C618 457.255 607.255 468 594 468H274C260.745 468 250 457.255 250 444V404Z" fill="#E9D1AD"/>
  <path d="M172 446C172 284.696 302.696 154 464 154H468C629.304 154 760 284.696 760 446V472H172V446Z" fill="#F8E2BC"/>
  <path d="M112 450C112 268.849 258.849 122 440 122H444C625.151 122 772 268.849 772 450V492C772 518.51 750.51 540 724 540H160C133.49 540 112 518.51 112 492V450Z" fill="#F3DFBC"/>
  <path d="M126 446C126 289.705 252.705 163 409 163H451C607.295 163 734 289.705 734 446V468C734 483.464 721.464 496 706 496H154C138.536 496 126 483.464 126 468V446Z" fill="#EFE0C5"/>
  <path d="M170 475C170 345.213 275.213 240 405 240C534.787 240 640 345.213 640 475V559H170V475Z" fill="#F3E0C4"/>
  <path d="M265 392C271.533 398.4 283.2 406.8 300 417C316.8 427.2 326 435.6 327.6 442.2" stroke="#D8B482" stroke-width="10" stroke-linecap="round"/>
  <path d="M522 388C515.467 394.4 503.8 402.8 487 413C470.2 423.2 461 431.6 459.4 438.2" stroke="#D8B482" stroke-width="10" stroke-linecap="round"/>
  <path d="M274 486C292.667 470 320.667 462 358 462C395.333 462 428 472.667 456 494" stroke="#D6B17E" stroke-width="10" stroke-linecap="round"/>
  <rect x="287" y="430" width="86" height="23" rx="11.5" fill="#D92A24"/>
  <rect x="286" y="469" width="86" height="23" rx="11.5" fill="#2350A4"/>
  <rect x="436" y="430" width="86" height="23" rx="11.5" fill="#D92A24"/>
  <rect x="435" y="469" width="86" height="23" rx="11.5" fill="#2350A4"/>
  <path d="M278 578C278 495.71 344.71 429 427 429C509.29 429 576 495.71 576 578V760H278V578Z" fill="#FFFDFC"/>
  <path d="M246 760C246 601.495 374.495 473 533 473H537C695.505 473 824 601.495 824 760H246Z" fill="#FFF8F2"/>
</svg>
