<svg width="760" height="760" viewBox="0 0 760 760" fill="none" xmlns="http://www.w3.org/2000/svg">
  <rect width="760" height="760" rx="32" fill="#FFF8F0"/>
  <ellipse cx="380" cy="728" rx="136" ry="28" fill="#E9D0BD"/>
  <path d="M194 434C194 268.315 328.315 134 494 134H500C665.685 134 800 268.315 800 434V488H194V434Z" fill="#F5E3C0"/>
  <path d="M122 430C122 266.018 254.018 134 418 134H438C601.982 134 734 266.018 734 430V490C734 511.539 716.539 529 695 529H161C139.461 529 122 511.539 122 490V430Z" fill="#F1DCB6"/>
  <path d="M150 410C150 285.737 250.737 185 375 185H481C605.263 185 706 285.737 706 410V458H150V410Z" fill="#EAD1A4"/>
  <path d="M170 402C170 266.691 279.691 157 415 157H451C586.309 157 696 266.691 696 402V492H170V402Z" fill="#F7E8D0"/>
  <path d="M250 274C288 218.667 344 182.667 418 166C478 152.667 536 158.333 592 183" stroke="#DAB680" stroke-width="12" stroke-linecap="round"/>
  <path d="M224 326C278 275.333 344.333 250 423 250C494.333 250 553 274.333 599 323" stroke="#D8B17B" stroke-width="12" stroke-linecap="round"/>
  <path d="M210 392C270.667 338 341.333 311 422 311C511.333 311 583.333 339.333 638 396" stroke="#D8B17B" stroke-width="12" stroke-linecap="round"/>
  <path d="M254 476C254 363.923 344.923 273 457 273C569.077 273 660 363.923 660 476V760H254V476Z" fill="#FAF2E6"/>
  <path d="M312 510C344.667 492.667 382 484 424 484C468.667 484 513.333 493.333 558 512" stroke="#D3AA74" stroke-width="11" stroke-linecap="round"/>
  <path d="M290 570C341.333 544.667 396.667 532 456 532C512.667 532 565.333 543.333 614 566" stroke="#D3AA74" stroke-width="11" stroke-linecap="round"/>
</svg>
